<?xml version="1.0" encoding="utf-8"?>
<!-- Generator: Adobe Illustrator 23.0.1, SVG Export Plug-In . SVG Version: 6.00 Build 0)  -->
<svg version="1.1" xmlns="http://www.w3.org/2000/svg" xmlns:xlink="http://www.w3.org/1999/xlink" x="0px" y="0px"
	 viewBox="0 0 1280 1024" style="enable-background:new 0 0 1280 1024;" xml:space="preserve">
<style type="text/css">
	.st0{fill:#FFFFFF;stroke:#FFFFFF;stroke-miterlimit:10;}
	.st1{fill:#FFFFFF;}
	.st2{fill:none;stroke:url(#SVGID_1_);stroke-width:0.75;stroke-miterlimit:10;}
	.st3{fill:none;stroke:url(#SVGID_2_);stroke-width:0.75;stroke-miterlimit:10;}
	.st4{fill:none;stroke:url(#SVGID_3_);stroke-width:0.75;stroke-miterlimit:10;}
	.st5{fill:none;stroke:url(#SVGID_4_);stroke-width:0.75;stroke-miterlimit:10;}
	.st6{fill:none;stroke:url(#SVGID_5_);stroke-width:0.75;stroke-miterlimit:10;}
	.st7{opacity:0.2;fill:#FEFEFE;}
	.st8{opacity:0.59;fill:#FEFEFE;}
	.st9{fill:#FEFEFE;}
	.st10{fill:none;stroke:url(#SVGID_6_);stroke-width:0.75;stroke-miterlimit:10;}
	.st11{fill:none;stroke:url(#SVGID_7_);stroke-width:0.75;stroke-miterlimit:10;}
	.st12{fill:none;stroke:url(#SVGID_8_);stroke-width:0.75;stroke-miterlimit:10;}
	.st13{fill:none;stroke:url(#SVGID_9_);stroke-width:0.75;stroke-miterlimit:10;}
	.st14{fill:none;stroke:url(#SVGID_10_);stroke-width:0.75;stroke-miterlimit:10;}
	.st15{fill:none;stroke:url(#SVGID_11_);stroke-width:0.75;stroke-miterlimit:10;}
	.st16{fill:none;stroke:url(#SVGID_12_);stroke-width:0.75;stroke-miterlimit:10;}
	.st17{fill:none;stroke:url(#SVGID_13_);stroke-width:0.75;stroke-miterlimit:10;}
	.st18{fill:none;stroke:url(#SVGID_14_);stroke-width:0.75;stroke-miterlimit:10;}
	.st19{fill:none;stroke:url(#SVGID_15_);stroke-width:0.75;stroke-miterlimit:10;}
	.st20{fill:none;stroke:url(#SVGID_16_);stroke-width:0.75;stroke-miterlimit:10;}
	.st21{fill:none;stroke:url(#SVGID_17_);stroke-width:0.75;stroke-miterlimit:10;}
	.st22{fill:none;stroke:url(#SVGID_18_);stroke-width:0.75;stroke-miterlimit:10;}
	.st23{fill:none;stroke:url(#SVGID_19_);stroke-width:0.75;stroke-miterlimit:10;}
	.st24{fill:none;stroke:url(#SVGID_20_);stroke-width:0.75;stroke-miterlimit:10;}
	.st25{fill:none;stroke:url(#SVGID_21_);stroke-width:0.75;stroke-miterlimit:10;}
	.st26{fill:none;stroke:url(#SVGID_22_);stroke-width:0.75;stroke-miterlimit:10;}
	.st27{fill:none;stroke:url(#SVGID_23_);stroke-width:0.75;stroke-miterlimit:10;}
	.st28{fill:none;stroke:url(#SVGID_24_);stroke-width:0.75;stroke-miterlimit:10;}
	.st29{fill:none;stroke:url(#SVGID_25_);stroke-width:0.75;stroke-miterlimit:10;}
	.st30{fill:none;stroke:url(#SVGID_26_);stroke-width:0.75;stroke-miterlimit:10;}
	.st31{fill:none;stroke:url(#SVGID_27_);stroke-width:0.75;stroke-miterlimit:10;}
	.st32{fill:none;stroke:url(#SVGID_28_);stroke-width:0.75;stroke-miterlimit:10;}
	.st33{fill:none;stroke:url(#SVGID_29_);stroke-width:0.75;stroke-miterlimit:10;}
	.st34{fill:none;stroke:url(#SVGID_30_);stroke-width:0.75;stroke-miterlimit:10;}
	.st35{fill:none;stroke:url(#SVGID_31_);stroke-width:0.75;stroke-miterlimit:10;}
	.st36{fill:none;stroke:url(#SVGID_32_);stroke-width:0.75;stroke-miterlimit:10;}
	.st37{fill:none;stroke:url(#SVGID_33_);stroke-width:0.75;stroke-miterlimit:10;}
	.st38{fill:none;stroke:url(#SVGID_34_);stroke-width:0.75;stroke-miterlimit:10;}
</style>
<g id="Layer_1">
</g>
<g id="Layer_2">
	<g>
		<path class="st0" d="M884,629.8l59.4-25c0,0,4.6-3.7,7.1,3c2.5,6.6,21.7,51.5,21.7,51.5s5.2,4.6-2.1,8.1
			c-7.3,3.5-20.5,8.2-20.5,8.2l-38,1l2.6-7l-17.3-8.4l4.8-23.7L884,629.8z"/>
		
			<rect x="947.6" y="648.5" transform="matrix(0.3819 0.9242 -0.9242 0.3819 1199.7909 -476.8206)" class="st1" width="17.5" height="20"/>
		
			<rect x="939.8" y="629.7" transform="matrix(0.3819 0.9242 -0.9242 0.3819 1177.558 -481.2741)" class="st1" width="17.5" height="20"/>
		
			<rect x="932" y="610.9" transform="matrix(0.3819 0.9242 -0.9242 0.3819 1155.3251 -485.7277)" class="st1" width="17.5" height="20"/>
		
			<linearGradient id="SVGID_1_" gradientUnits="userSpaceOnUse" x1="695.804" y1="197.8203" x2="716.9994" y2="197.8203" gradientTransform="matrix(-0.9242 0.3819 -0.3819 -0.9242 1669.11 533.7195)">
			<stop  offset="0" style="stop-color:#FFFFFF"/>
			<stop  offset="0.8242" style="stop-color:#000000"/>
		</linearGradient>
		<polyline class="st2" points="950.7,618 953.6,625.1 934.7,632.9 927.8,616.2 941.8,610.4 		"/>
		
			<linearGradient id="SVGID_2_" gradientUnits="userSpaceOnUse" x1="695.804" y1="177.0622" x2="716.9994" y2="177.0622" gradientTransform="matrix(-0.9242 0.3819 -0.3819 -0.9242 1669.11 533.7195)">
			<stop  offset="0" style="stop-color:#FFFFFF"/>
			<stop  offset="0.8242" style="stop-color:#000000"/>
		</linearGradient>
		<polyline class="st3" points="958.6,637.1 961.5,644.3 942.6,652.1 935.7,635.4 949.7,629.6 		"/>
		
			<linearGradient id="SVGID_3_" gradientUnits="userSpaceOnUse" x1="695.804" y1="156.8535" x2="716.9994" y2="156.8535" gradientTransform="matrix(-0.9242 0.3819 -0.3819 -0.9242 1669.11 533.7195)">
			<stop  offset="0" style="stop-color:#FFFFFF"/>
			<stop  offset="0.8242" style="stop-color:#000000"/>
		</linearGradient>
		<polyline class="st4" points="966.3,655.8 969.2,662.9 950.3,670.8 943.4,654 957.4,648.3 		"/>
		
			<rect x="916.3" y="639.2" transform="matrix(0.3819 0.9242 -0.9242 0.3819 1171.8496 -453.6549)" class="st1" width="17.5" height="20"/>
		
			<rect x="908.5" y="620.4" transform="matrix(0.3819 0.9242 -0.9242 0.3819 1149.6167 -458.1084)" class="st1" width="17.5" height="20"/>
		
			<linearGradient id="SVGID_4_" gradientUnits="userSpaceOnUse" x1="721.1684" y1="197.9753" x2="742.3639" y2="197.9753" gradientTransform="matrix(-0.9242 0.3819 -0.3819 -0.9242 1669.11 533.7195)">
			<stop  offset="0" style="stop-color:#FFFFFF"/>
			<stop  offset="0.8242" style="stop-color:#000000"/>
		</linearGradient>
		<polyline class="st5" points="927.2,627.5 930.1,634.6 911.2,642.4 904.3,625.7 918.3,620 		"/>
		
			<linearGradient id="SVGID_5_" gradientUnits="userSpaceOnUse" x1="721.1684" y1="177.2173" x2="742.3639" y2="177.2173" gradientTransform="matrix(-0.9242 0.3819 -0.3819 -0.9242 1669.11 533.7195)">
			<stop  offset="0" style="stop-color:#FFFFFF"/>
			<stop  offset="0.8242" style="stop-color:#000000"/>
		</linearGradient>
		<polyline class="st6" points="935.1,646.7 938,653.8 919.1,661.6 912.2,644.9 926.2,639.1 		"/>
	</g>
	<g>
		<polygon class="st0" points="897.9,505.7 907.5,476.1 893.7,460.4 865.1,468.2 		"/>
		<path class="st0" d="M966.4,474.7l-63.6-71.5c0,0-33.1,38.1-3.2,69.6C929.6,504.3,966.4,474.7,966.4,474.7z"/>
		<path class="st0" d="M928.6,430.9l15.6,17.8c0,0,8.3-9.4,0.9-17.2C937.7,423.6,928.6,430.9,928.6,430.9z"/>
		<path class="st7" d="M986.1,429.3c0,0,0.6,4.3-3.1,4.6c-3.7,0.3-3.7-3.8-3.7-3.8s1.9-36.5-39.7-34c0,0-3.7,0-3.2-3.3
			c0.5-3.3,3.5-2.6,3.5-2.6S982.5,383.2,986.1,429.3z"/>
		<path class="st8" d="M971.2,430.9c0,0,0.4,2.7-1.9,2.9c-2.3,0.2-2.4-2.4-2.4-2.4s1.2-22.9-25-21.4c0,0-2.3,0-2-2.1
			c0.3-2.1,2.2-1.6,2.2-1.6S968.9,402,971.2,430.9z"/>
		<path class="st9" d="M957.4,429.1c0,0,0.2,1.2-0.9,1.3s-1.1-1.1-1.1-1.1s0.5-10.3-11.2-9.6c0,0-1,0-0.9-0.9c0.1-0.9,1-0.7,1-0.7
			S956.4,416.1,957.4,429.1z"/>
	</g>
	<g>
		
			<rect x="811.5" y="582.4" transform="matrix(-0.9991 -4.203571e-02 4.203571e-02 -0.9991 1614.9409 1218.7249)" class="st1" width="17.5" height="20"/>
		
			<rect x="831.9" y="583.3" transform="matrix(-0.9991 -4.203571e-02 4.203571e-02 -0.9991 1655.6365 1221.295)" class="st1" width="17.5" height="20"/>
		
			<rect x="852.3" y="584.1" transform="matrix(-0.9991 -4.203571e-02 4.203571e-02 -0.9991 1696.332 1223.8652)" class="st1" width="17.5" height="20"/>
		
			<linearGradient id="SVGID_6_" gradientUnits="userSpaceOnUse" x1="639.2896" y1="166.0544" x2="660.485" y2="166.0544" gradientTransform="matrix(4.203571e-02 -0.9991 0.9991 4.203571e-02 668.0212 1236.4398)">
			<stop  offset="0" style="stop-color:#FFFFFF"/>
			<stop  offset="0.8242" style="stop-color:#000000"/>
		</linearGradient>
		<polyline class="st10" points="859.5,604.3 851.8,603.9 852.6,583.5 870.7,584.3 870.1,599.4 		"/>
		
			<linearGradient id="SVGID_7_" gradientUnits="userSpaceOnUse" x1="639.2896" y1="145.2963" x2="660.485" y2="145.2963" gradientTransform="matrix(4.203571e-02 -0.9991 0.9991 4.203571e-02 668.0212 1236.4398)">
			<stop  offset="0" style="stop-color:#FFFFFF"/>
			<stop  offset="0.8242" style="stop-color:#000000"/>
		</linearGradient>
		<polyline class="st11" points="838.7,603.4 831,603.1 831.9,582.6 850,583.4 849.3,598.5 		"/>
		
			<linearGradient id="SVGID_8_" gradientUnits="userSpaceOnUse" x1="639.2896" y1="125.0876" x2="660.485" y2="125.0876" gradientTransform="matrix(4.203571e-02 -0.9991 0.9991 4.203571e-02 668.0212 1236.4398)">
			<stop  offset="0" style="stop-color:#FFFFFF"/>
			<stop  offset="0.8242" style="stop-color:#000000"/>
		</linearGradient>
		<polyline class="st12" points="818.6,602.5 810.9,602.2 811.7,581.8 829.8,582.6 829.1,597.7 		"/>
		<path class="st0" d="M788.6,504.1c0,0-3.6-0.3-4.1,3.8s-3,49.9-3,49.9s-1.1,7.1,6.7,7.2c7.8,0.2,93.3,3.6,93.3,3.6s4.5,1.6,5.4-5
			l-17.6-17.8l-21.2-3.9l-9.4-16.5l-17.7-0.7l-7.1-9.6l-12,3.4L788.6,504.1z"/>
		<path class="st0" d="M813.4,574.4l55.3,2.5c0,0,7.5,0.1,7.2,7.8c-0.3,7.7-1.2,43.5-1.2,43.5l-19,7.7l-15.2-10.6l-14.9,12.1
			l-6.6-7.2l-13.4,34.5l2.8-85.9C808.3,579,809.1,574.2,813.4,574.4z"/>
		
			<rect x="812.7" y="580.3" transform="matrix(-0.9991 -4.203571e-02 4.203571e-02 -0.9991 1617.4504 1214.5742)" class="st1" width="17.5" height="20"/>
		
			<rect x="833.1" y="581.2" transform="matrix(-0.9991 -4.203571e-02 4.203571e-02 -0.9991 1658.1461 1217.1444)" class="st1" width="17.5" height="20"/>
		
			<rect x="853.5" y="582" transform="matrix(-0.9991 -4.203571e-02 4.203571e-02 -0.9991 1698.8417 1219.7146)" class="st1" width="17.5" height="20"/>
		
			<linearGradient id="SVGID_9_" gradientUnits="userSpaceOnUse" x1="641.4403" y1="167.1761" x2="662.6358" y2="167.1761" gradientTransform="matrix(4.203571e-02 -0.9991 0.9991 4.203571e-02 668.0212 1236.4398)">
			<stop  offset="0" style="stop-color:#FFFFFF"/>
			<stop  offset="0.8242" style="stop-color:#000000"/>
		</linearGradient>
		<polyline class="st13" points="860.7,602.2 853,601.8 853.9,581.4 871.9,582.2 871.3,597.3 		"/>
		
			<linearGradient id="SVGID_10_" gradientUnits="userSpaceOnUse" x1="641.4403" y1="146.4181" x2="662.6358" y2="146.4181" gradientTransform="matrix(4.203571e-02 -0.9991 0.9991 4.203571e-02 668.0212 1236.4398)">
			<stop  offset="0" style="stop-color:#FFFFFF"/>
			<stop  offset="0.8242" style="stop-color:#000000"/>
		</linearGradient>
		<polyline class="st14" points="840,601.3 832.3,601 833.1,580.5 851.2,581.3 850.5,596.4 		"/>
		
			<linearGradient id="SVGID_11_" gradientUnits="userSpaceOnUse" x1="641.4403" y1="126.2094" x2="662.6358" y2="126.2094" gradientTransform="matrix(4.203571e-02 -0.9991 0.9991 4.203571e-02 668.0212 1236.4398)">
			<stop  offset="0" style="stop-color:#FFFFFF"/>
			<stop  offset="0.8242" style="stop-color:#000000"/>
		</linearGradient>
		<polyline class="st15" points="819.8,600.4 812.1,600.1 812.9,579.7 831,580.4 830.4,595.6 		"/>
		
			<rect x="811.8" y="602.8" transform="matrix(-0.9991 -4.203571e-02 4.203571e-02 -0.9991 1614.6146 1259.4767)" class="st1" width="17.5" height="20"/>
		
			<rect x="832.2" y="603.6" transform="matrix(-0.9991 -4.203571e-02 4.203571e-02 -0.9991 1655.3102 1262.0469)" class="st1" width="17.5" height="20"/>
		
			<rect x="852.5" y="604.5" transform="matrix(-0.9991 -4.203571e-02 4.203571e-02 -0.9991 1696.0059 1264.6171)" class="st1" width="17.5" height="20"/>
		
			<linearGradient id="SVGID_12_" gradientUnits="userSpaceOnUse" x1="618.9394" y1="167.1761" x2="640.1348" y2="167.1761" gradientTransform="matrix(4.203571e-02 -0.9991 0.9991 4.203571e-02 668.0212 1236.4398)">
			<stop  offset="0" style="stop-color:#FFFFFF"/>
			<stop  offset="0.8242" style="stop-color:#000000"/>
		</linearGradient>
		<polyline class="st16" points="859.7,624.6 852.1,624.3 852.9,603.9 871,604.7 870.3,619.8 		"/>
		
			<linearGradient id="SVGID_13_" gradientUnits="userSpaceOnUse" x1="618.9394" y1="146.4181" x2="640.1348" y2="146.4181" gradientTransform="matrix(4.203571e-02 -0.9991 0.9991 4.203571e-02 668.0212 1236.4398)">
			<stop  offset="0" style="stop-color:#FFFFFF"/>
			<stop  offset="0.8242" style="stop-color:#000000"/>
		</linearGradient>
		<polyline class="st17" points="839,623.8 831.3,623.4 832.2,603 850.2,603.8 849.6,618.9 		"/>
		
			<linearGradient id="SVGID_14_" gradientUnits="userSpaceOnUse" x1="618.9394" y1="126.2094" x2="640.1348" y2="126.2094" gradientTransform="matrix(4.203571e-02 -0.9991 0.9991 4.203571e-02 668.0212 1236.4398)">
			<stop  offset="0" style="stop-color:#FFFFFF"/>
			<stop  offset="0.8242" style="stop-color:#000000"/>
		</linearGradient>
		<polyline class="st18" points="818.8,622.9 811.1,622.6 812,602.2 830,602.9 829.4,618 		"/>
		<polygon class="st1" points="781.9,544.2 756,557.5 758.6,503.8 783,519 		"/>
		
			<rect x="834.9" y="560.6" transform="matrix(-4.203571e-02 0.9991 -0.9991 -4.203571e-02 1449.056 -254.6525)" class="st0" width="23.4" height="13.5"/>
	</g>
	<g>
		<path class="st0" d="M843.7,442.6l-32.2-110c-0.9-3-4-4.7-7-3.8l-52.4,15.3c-3,0.9-4.7,4-3.8,7l32.2,110c0.9,3,4,4.7,7,3.8
			l52.4-15.3C842.9,448.8,844.6,445.6,843.7,442.6z"/>
		
			<rect x="793.8" y="336.7" transform="matrix(0.9597 -0.2809 0.2809 0.9597 -65.0787 239.4244)" class="st1" width="17.5" height="20"/>
		
			<rect x="800.3" y="359" transform="matrix(0.9597 -0.2809 0.2809 0.9597 -71.0747 242.1537)" class="st1" width="17.5" height="20"/>
		
			<rect x="754.9" y="348.1" transform="matrix(0.9597 -0.2809 0.2809 0.9597 -69.8384 228.9673)" class="st1" width="17.5" height="20"/>
		
			<rect x="774.4" y="342.4" transform="matrix(0.9597 -0.2809 0.2809 0.9597 -67.4585 234.1959)" class="st1" width="17.5" height="20"/>
		
			<rect x="819.9" y="425.8" transform="matrix(0.9597 -0.2809 0.2809 0.9597 -89.0504 250.3356)" class="st1" width="17.5" height="20"/>
		
			<rect x="813.3" y="403.4" transform="matrix(0.9597 -0.2809 0.2809 0.9597 -83.0154 247.5887)" class="st1" width="17.5" height="20"/>
		
			<rect x="806.8" y="381.2" transform="matrix(0.9597 -0.2809 0.2809 0.9597 -77.042 244.8698)" class="st1" width="17.5" height="20"/>
		
			<rect x="767.9" y="392.5" transform="matrix(0.9597 -0.2809 0.2809 0.9597 -81.8017 234.4127)" class="st1" width="17.5" height="20"/>
		
			<rect x="774.4" y="414.7" transform="matrix(0.9597 -0.2809 0.2809 0.9597 -87.7752 237.1316)" class="st1" width="17.5" height="20"/>
		
			<rect x="793.8" y="409.2" transform="matrix(0.9597 -0.2809 0.2809 0.9597 -85.4438 242.3352)" class="st1" width="17.5" height="20"/>
		
			<rect x="787.2" y="386.9" transform="matrix(0.9597 -0.2809 0.2809 0.9597 -79.4396 239.6022)" class="st1" width="17.5" height="20"/>
		
			<rect x="780.7" y="364.7" transform="matrix(0.9597 -0.2809 0.2809 0.9597 -73.4724 236.8861)" class="st1" width="17.5" height="20"/>
		
			<rect x="800.3" y="431.5" transform="matrix(0.9597 -0.2809 0.2809 0.9597 -91.448 245.0681)" class="st1" width="17.5" height="20"/>
		
			<rect x="780.7" y="437.2" transform="matrix(0.9597 -0.2809 0.2809 0.9597 -93.8456 239.8006)" class="st1" width="17.5" height="20"/>
		
			<rect x="761.5" y="370.4" transform="matrix(0.9597 -0.2809 0.2809 0.9597 -75.8345 231.6966)" class="st1" width="17.5" height="20"/>
		
			<linearGradient id="SVGID_15_" gradientUnits="userSpaceOnUse" x1="912.8024" y1="714.9491" x2="933.9978" y2="714.9491" gradientTransform="matrix(0.2809 0.9597 -0.9597 0.2809 1229.3044 -740.3612)">
			<stop  offset="0" style="stop-color:#FFFFFF"/>
			<stop  offset="0.8242" style="stop-color:#000000"/>
		</linearGradient>
		<polyline class="st19" points="801,336.5 808.4,334.4 814.1,354 796.8,359.1 792.5,344.5 		"/>
		
			<linearGradient id="SVGID_16_" gradientUnits="userSpaceOnUse" x1="959.1296" y1="714.9823" x2="980.325" y2="714.9823" gradientTransform="matrix(0.2809 0.9597 -0.9597 0.2809 1229.3044 -740.3612)">
			<stop  offset="0" style="stop-color:#FFFFFF"/>
			<stop  offset="0.8242" style="stop-color:#000000"/>
		</linearGradient>
		<polyline class="st20" points="814,381 821.3,378.8 827.1,398.4 809.7,403.5 805.5,389 		"/>
		
			<linearGradient id="SVGID_17_" gradientUnits="userSpaceOnUse" x1="959.1176" y1="735.3419" x2="980.313" y2="735.3419" gradientTransform="matrix(0.2809 0.9597 -0.9597 0.2809 1229.3044 -740.3612)">
			<stop  offset="0" style="stop-color:#FFFFFF"/>
			<stop  offset="0.8242" style="stop-color:#000000"/>
		</linearGradient>
		<polyline class="st21" points="794.4,386.7 801.8,384.5 807.5,404.2 790.2,409.2 785.9,394.7 		"/>
		
			<linearGradient id="SVGID_18_" gradientUnits="userSpaceOnUse" x1="936.0815" y1="735.191" x2="957.277" y2="735.191" gradientTransform="matrix(0.2809 0.9597 -0.9597 0.2809 1229.3044 -740.3612)">
			<stop  offset="0" style="stop-color:#FFFFFF"/>
			<stop  offset="0.8242" style="stop-color:#000000"/>
		</linearGradient>
		<polyline class="st22" points="788.1,364.5 795.5,362.4 801.2,382 783.9,387.1 779.6,372.6 		"/>
		
			<linearGradient id="SVGID_19_" gradientUnits="userSpaceOnUse" x1="912.8024" y1="755.7348" x2="933.9978" y2="755.7348" gradientTransform="matrix(0.2809 0.9597 -0.9597 0.2809 1229.3044 -740.3612)">
			<stop  offset="0" style="stop-color:#FFFFFF"/>
			<stop  offset="0.8242" style="stop-color:#000000"/>
		</linearGradient>
		<polyline class="st23" points="761.8,348 769.2,345.8 775,365.4 757.6,370.5 753.4,356 		"/>
		
			<linearGradient id="SVGID_20_" gradientUnits="userSpaceOnUse" x1="912.8024" y1="735.3419" x2="933.9978" y2="735.3419" gradientTransform="matrix(0.2809 0.9597 -0.9597 0.2809 1229.3044 -740.3612)">
			<stop  offset="0" style="stop-color:#FFFFFF"/>
			<stop  offset="0.8242" style="stop-color:#000000"/>
		</linearGradient>
		<polyline class="st24" points="781.4,342.2 788.8,340.1 794.5,359.7 777.2,364.8 772.9,350.3 		"/>
		
			<linearGradient id="SVGID_21_" gradientUnits="userSpaceOnUse" x1="936.0159" y1="714.9491" x2="957.2113" y2="714.9491" gradientTransform="matrix(0.2809 0.9597 -0.9597 0.2809 1229.3044 -740.3612)">
			<stop  offset="0" style="stop-color:#FFFFFF"/>
			<stop  offset="0.8242" style="stop-color:#000000"/>
		</linearGradient>
		<polyline class="st25" points="807.5,358.8 814.9,356.6 820.6,376.3 803.3,381.3 799,366.8 		"/>
		
			<linearGradient id="SVGID_22_" gradientUnits="userSpaceOnUse" x1="936.0815" y1="755.433" x2="957.277" y2="755.433" gradientTransform="matrix(0.2809 0.9597 -0.9597 0.2809 1229.3044 -740.3612)">
			<stop  offset="0" style="stop-color:#FFFFFF"/>
			<stop  offset="0.8242" style="stop-color:#000000"/>
		</linearGradient>
		<polyline class="st26" points="768.7,370.2 776,368.1 781.8,387.7 764.4,392.8 760.2,378.3 		"/>
		
			<linearGradient id="SVGID_23_" gradientUnits="userSpaceOnUse" x1="1005.6072" y1="755.9491" x2="1026.8027" y2="755.9491" gradientTransform="matrix(0.2809 0.9597 -0.9597 0.2809 1229.3044 -740.3612)">
			<stop  offset="0" style="stop-color:#FFFFFF"/>
			<stop  offset="0.8242" style="stop-color:#000000"/>
		</linearGradient>
		<polyline class="st27" points="787.7,437.1 795.1,434.9 800.8,454.6 783.5,459.6 779.2,445.1 		"/>
		
			<linearGradient id="SVGID_24_" gradientUnits="userSpaceOnUse" x1="1005.6072" y1="735.191" x2="1026.8027" y2="735.191" gradientTransform="matrix(0.2809 0.9597 -0.9597 0.2809 1229.3044 -740.3612)">
			<stop  offset="0" style="stop-color:#FFFFFF"/>
			<stop  offset="0.8242" style="stop-color:#000000"/>
		</linearGradient>
		<polyline class="st28" points="807.6,431.3 815,429.1 820.7,448.7 803.4,453.8 799.2,439.3 		"/>
		
			<linearGradient id="SVGID_25_" gradientUnits="userSpaceOnUse" x1="982.2433" y1="714.6805" x2="1003.4388" y2="714.6805" gradientTransform="matrix(0.2809 0.9597 -0.9597 0.2809 1229.3044 -740.3612)">
			<stop  offset="0" style="stop-color:#FFFFFF"/>
			<stop  offset="0.8242" style="stop-color:#000000"/>
		</linearGradient>
		<polyline class="st29" points="820.7,403.1 828.1,400.9 833.9,420.5 816.5,425.6 812.3,411.1 		"/>
		
			<linearGradient id="SVGID_26_" gradientUnits="userSpaceOnUse" x1="1005.6072" y1="714.9823" x2="1026.8027" y2="714.9823" gradientTransform="matrix(0.2809 0.9597 -0.9597 0.2809 1229.3044 -740.3612)">
			<stop  offset="0" style="stop-color:#FFFFFF"/>
			<stop  offset="0.8242" style="stop-color:#000000"/>
		</linearGradient>
		<polyline class="st30" points="827,425.6 834.4,423.4 840.1,443.1 822.8,448.1 818.5,433.6 		"/>
		
			<linearGradient id="SVGID_27_" gradientUnits="userSpaceOnUse" x1="982.2433" y1="755.433" x2="1003.4388" y2="755.433" gradientTransform="matrix(0.2809 0.9597 -0.9597 0.2809 1229.3044 -740.3612)">
			<stop  offset="0" style="stop-color:#FFFFFF"/>
			<stop  offset="0.8242" style="stop-color:#000000"/>
		</linearGradient>
		<polyline class="st31" points="781.6,414.5 789,412.4 794.8,432 777.4,437.1 773.2,422.6 		"/>
		
			<linearGradient id="SVGID_28_" gradientUnits="userSpaceOnUse" x1="982.4839" y1="735.3419" x2="1003.6794" y2="735.3419" gradientTransform="matrix(0.2809 0.9597 -0.9597 0.2809 1229.3044 -740.3612)">
			<stop  offset="0" style="stop-color:#FFFFFF"/>
			<stop  offset="0.8242" style="stop-color:#000000"/>
		</linearGradient>
		<polyline class="st32" points="801,409.1 808.4,407 814.1,426.6 796.8,431.7 792.5,417.1 		"/>
		
			<linearGradient id="SVGID_29_" gradientUnits="userSpaceOnUse" x1="959.1176" y1="755.1644" x2="980.313" y2="755.1644" gradientTransform="matrix(0.2809 0.9597 -0.9597 0.2809 1229.3044 -740.3612)">
			<stop  offset="0" style="stop-color:#FFFFFF"/>
			<stop  offset="0.8242" style="stop-color:#000000"/>
		</linearGradient>
		<polyline class="st33" points="775.4,392.3 782.8,390.1 788.5,409.7 771.2,414.8 766.9,400.3 		"/>
	</g>
	<path class="st0" d="M769.6,484.1l87.6-25c0,0,7.4-3.3,9.8,4.1s13.5,44.9,13.5,44.9l-22.1-10.8l-22.5,1l-12.9-11.9l-17.2,4.1
		l-10.7-6.1l-11.7,7.4L769.6,484.1z"/>
	
		<rect x="805.5" y="458.5" transform="matrix(0.2809 0.9597 -0.9597 0.2809 1034.2139 -449.7186)" class="st0" width="23.4" height="13.5"/>
	<polygon class="st0" points="845.4,650 827.6,651 849.9,659.8 	"/>
	<polygon class="st0" points="885.4,662.5 862.9,669.7 871.5,680.7 	"/>
	<polygon class="st0" points="862.4,649.8 856.9,650.8 860.9,654.7 	"/>
	<polygon class="st0" points="829.6,511.7 844.2,507.4 847.4,513.9 	"/>
	<polygon class="st0" points="797.7,504.2 811.3,503.5 807.2,507.2 	"/>
	<polygon class="st0" points="768.2,492.6 776.7,503.1 771.3,502 	"/>
	<polygon class="st0" points="654,556.7 655.3,570.2 651.4,566.3 	"/>
	<polygon class="st0" points="702.6,459.5 709.7,471.1 704.4,469.4 	"/>
	<polygon class="st0" points="702.4,515.1 682.8,545 685.2,531.3 	"/>
	<polygon class="st0" points="749.2,480.4 761.7,485.6 756.4,487.2 	"/>
	<polygon class="st0" points="736.2,498.3 750.8,494 754,500.5 	"/>
	<polygon class="st0" points="761.4,493 764.8,497.9 762.2,497.7 	"/>
	<polygon class="st0" points="790.4,494.5 793.8,499.4 791.3,499.2 	"/>
	<polygon class="st0" points="753.9,510.1 748,511.1 749.2,508.9 	"/>
	<polygon class="st0" points="779.1,496.2 775.2,494.5 776.8,493.4 	"/>
	<polygon class="st0" points="744.2,488.5 740.3,486.8 741.8,485.7 	"/>
	<path class="st0" d="M563.2,461.2c0,0-22.2-6.9-16-31.6l5.7,6.4l6.4-8.5l8.9-4.2l4.7,4.6L563.2,461.2z"/>
	<path class="st0" d="M564.4,598.4l-1.4-8.7c0,0,14.9-14.4,34.4,0.7l-12.2,13.5l-2.2-7.3l-12.5-1.6L564.4,598.4z"/>
	<line class="st0" x1="547.5" y1="430.8" x2="533.2" y2="427.9"/>
	<circle class="st0" cx="532.8" cy="427.8" r="2"/>
	<polygon class="st0" points="652.1,524.2 664.6,529.4 659.3,531 	"/>
	<polygon class="st0" points="693.4,462.5 668.1,437.2 681.1,442.4 	"/>
	<polygon class="st0" points="653.9,427.6 655.3,441.1 651.4,437.2 	"/>
	<polygon class="st0" points="631,403.6 643.6,408.7 638.3,410.3 	"/>
	<polygon class="st0" points="883.8,499.6 880.7,497 882,495.2 	"/>
	<polygon class="st0" points="888.1,500.9 893.8,503.1 894.3,506.9 	"/>
	<g>
		<path class="st0" d="M528.2,383.4l26.6-11.2c0,0,2.1-1.6,3.2,1.3c1.1,3,9.7,23.1,9.7,23.1s2.3,2.1-1,3.6c-3.3,1.6-9.2,3.7-9.2,3.7
			l-17,0.4l1.2-3.1l-7.7-3.8l2.2-10.6L528.2,383.4z"/>
		
			<rect x="556.6" y="391.7" transform="matrix(0.3819 0.9242 -0.9242 0.3819 712.6963 -273.1755)" class="st1" width="7.9" height="8.9"/>
		
			<rect x="553.2" y="383.3" transform="matrix(0.3819 0.9242 -0.9242 0.3819 702.7424 -275.1693)" class="st1" width="7.9" height="8.9"/>
		
			<rect x="549.7" y="374.9" transform="matrix(0.3819 0.9242 -0.9242 0.3819 692.7886 -277.1632)" class="st1" width="7.9" height="8.9"/>
		
			<linearGradient id="SVGID_30_" gradientUnits="userSpaceOnUse" x1="967.0787" y1="568.7493" x2="976.9822" y2="568.7493" gradientTransform="matrix(-0.9242 0.3819 -0.3819 -0.9242 1669.11 533.7195)">
			<stop  offset="0" style="stop-color:#FFFFFF"/>
			<stop  offset="0.8242" style="stop-color:#000000"/>
		</linearGradient>
		<polyline class="st34" points="558,378 559.3,381.2 550.9,384.7 547.8,377.2 554,374.7 		"/>
		
			<linearGradient id="SVGID_31_" gradientUnits="userSpaceOnUse" x1="967.0787" y1="559.4557" x2="976.9822" y2="559.4557" gradientTransform="matrix(-0.9242 0.3819 -0.3819 -0.9242 1669.11 533.7195)">
			<stop  offset="0" style="stop-color:#FFFFFF"/>
			<stop  offset="0.8242" style="stop-color:#000000"/>
		</linearGradient>
		<polyline class="st35" points="561.6,386.6 562.9,389.8 554.4,393.3 551.3,385.8 557.6,383.3 		"/>
		
			<linearGradient id="SVGID_32_" gradientUnits="userSpaceOnUse" x1="967.0787" y1="550.4081" x2="976.9822" y2="550.4081" gradientTransform="matrix(-0.9242 0.3819 -0.3819 -0.9242 1669.11 533.7195)">
			<stop  offset="0" style="stop-color:#FFFFFF"/>
			<stop  offset="0.8242" style="stop-color:#000000"/>
		</linearGradient>
		<polyline class="st36" points="565,395 566.3,398.2 557.9,401.7 554.8,394.2 561,391.6 		"/>
		
			<rect x="542.6" y="387.6" transform="matrix(0.3819 0.9242 -0.9242 0.3819 700.1868 -262.804)" class="st1" width="7.9" height="8.9"/>
		
			<rect x="539.1" y="379.1" transform="matrix(0.3819 0.9242 -0.9242 0.3819 690.233 -264.7979)" class="st1" width="7.9" height="8.9"/>
		
			<linearGradient id="SVGID_33_" gradientUnits="userSpaceOnUse" x1="978.4346" y1="568.8187" x2="988.3381" y2="568.8187" gradientTransform="matrix(-0.9242 0.3819 -0.3819 -0.9242 1669.11 533.7195)">
			<stop  offset="0" style="stop-color:#FFFFFF"/>
			<stop  offset="0.8242" style="stop-color:#000000"/>
		</linearGradient>
		<polyline class="st37" points="547.5,382.3 548.8,385.5 540.4,389 537.3,381.5 543.5,378.9 		"/>
		
			<linearGradient id="SVGID_34_" gradientUnits="userSpaceOnUse" x1="978.4346" y1="559.5251" x2="988.3381" y2="559.5251" gradientTransform="matrix(-0.9242 0.3819 -0.3819 -0.9242 1669.11 533.7195)">
			<stop  offset="0" style="stop-color:#FFFFFF"/>
			<stop  offset="0.8242" style="stop-color:#000000"/>
		</linearGradient>
		<polyline class="st38" points="551,390.9 552.4,394.1 543.9,397.6 540.8,390.1 547.1,387.5 		"/>
	</g>
</g>
<g id="Layer_3">
	<path class="st1" d="M685.5,483.9l10.8-7c0,0,32.5-1.3,36.2,6.8c3.8,8-9.7,24.9-9.7,24.9l-17.1-3.2l-2.3-6.6l-9-0.7l-2.7-8.2
		l1.1-2.2L685.5,483.9z"/>
	<path class="st1" d="M697.2,511.5c0,0-3.7-2.9-4.7-2.5s-0.2,0-0.2,0l3-3.3l2.8,1.3C698.2,507,696.7,510.5,697.2,511.5z"/>
	<polygon class="st1" points="611.9,570.9 617.5,571.5 638.5,548.9 	"/>
	<polygon class="st1" points="603.8,470.5 601.1,464 653.7,473 	"/>
	<path class="st1" d="M586.6,405.6c0,0,12.3,4.2,15.2,10l11.9-4.6l-6.5-13.3C607.2,397.7,591.9,405.4,586.6,405.6z"/>
	<polygon class="st1" points="597,427.7 698.2,471.3 691.1,475.1 593.5,447.9 	"/>
	<path class="st1" d="M594.5,496.6c0,0,16.3,4.6,17.6,9.5s-2.9-11.9,3.7-17.9l-11.3-4.2C604.5,484,598.3,494.9,594.5,496.6z"/>
	<path class="st1" d="M573.2,514.9c1.5-0.2,36.4-4.3,36.4-4.3l-32.8,7.7L573.2,514.9z"/>
	<polygon class="st1" points="546,550.5 570.2,569 688.3,497.2 687.7,494.1 	"/>
	<path class="st1" d="M683.2,491.7c0,0,2,1.2,2,1.9l2.1-1.5l-1.2-1.1C686.1,491,684.2,491.9,683.2,491.7z"/>
	<path class="st1" d="M688.2,488.5c0,0,0.9,0.6,0.9,1l0.9-0.7l-0.5-0.6C689.6,488.2,688.7,488.6,688.2,488.5z"/>
	<path class="st1" d="M523.8,480.4l14.8,16.8l56-4.7c0,0,10.1-9.8,9.9-11.3l14.1,5.7c0,0-1.7,2.3-1,3.6l64-5.4l3.9-1.3l-4.5-4.7
		l-159.4-1.7L523.8,480.4z"/>
	<path class="st1" d="M539,564.4c0,0-7.3,10.8-13.7,12l1.2,12.7l14.6-2.7C541.1,586.4,537.8,569.6,539,564.4z"/>
</g>
</svg>
