<svg xmlns="http://www.w3.org/2000/svg" xmlns:xlink="http://www.w3.org/1999/xlink" viewBox="0 0 92 85">
  <defs>
    <style>
      .cls-1, .cls-3 {
        fill: #013c48;
      }

      .cls-1 {
        stroke: #707070;
      }

      .cls-2 {
        clip-path: url(#clip-path);
      }
    </style>
    <clipPath id="clip-path">
      <rect id="Rectangle_26" data-name="Rectangle 26" class="cls-1" width="92" height="85" transform="translate(1005 1283)"/>
    </clipPath>
  </defs>
  <g id="Mask_Group_4" data-name="Mask Group 4" class="cls-2" transform="translate(-1005 -1283)">
    <g id="location-point" transform="translate(1008.5 1283)">
      <g id="Group_45" data-name="Group 45">
        <path id="Path_91" data-name="Path 91" class="cls-3" d="M42.415,28.56a8.272,8.272,0,0,1,8.33,8.33,8.272,8.272,0,0,1-8.33,8.33,8.272,8.272,0,0,1-8.33-8.33,8.272,8.272,0,0,1,8.33-8.33Zm20.74,8.5a19.928,19.928,0,0,0-1.615-7.99,20.854,20.854,0,0,0-4.42-6.545,21.455,21.455,0,0,0-6.545-4.462,19.5,19.5,0,0,0-7.99-1.657h-.17a19.5,19.5,0,0,0-7.99,1.657,21.457,21.457,0,0,0-6.545,4.462,20.848,20.848,0,0,0-4.42,6.545,19.937,19.937,0,0,0-1.615,7.99v.595a.347.347,0,0,0,.085.255,17.258,17.258,0,0,0,.425,3.655,13.591,13.591,0,0,0,1.19,3.4q1.02,2.21,2.465,4.845t3.1,5.483q1.657,2.847,3.187,5.27t2.72,4.165a18.71,18.71,0,0,0,1.7,2.252q.68.68,1.573,1.445t1.742,1.36a12.406,12.406,0,0,0,1.53.935,2.675,2.675,0,0,0,.935.34,2.374,2.374,0,0,0,.892-.34q.638-.34,1.488-.892a16.642,16.642,0,0,0,1.743-1.317q.893-.765,1.658-1.53a18.74,18.74,0,0,0,1.7-2.252q1.19-1.742,2.72-4.208t3.187-5.27q1.658-2.805,3.1-5.482t2.423-4.845a18.291,18.291,0,0,0,1.232-3.357q.17-.935.255-1.827t.171-1.828v-.255a.593.593,0,0,1,.043-.255.593.593,0,0,0,.043-.255V37.06ZM42.5,0A41.268,41.268,0,0,1,59.033,3.358a42.454,42.454,0,0,1,22.61,22.61A42.442,42.442,0,0,1,83.47,53.8a43.1,43.1,0,0,1-4.293,10.158A42.555,42.555,0,0,1,63.963,79.177,43.078,43.078,0,0,1,53.805,83.47a42.52,42.52,0,0,1-22.61,0,43.086,43.086,0,0,1-10.158-4.292A42.558,42.558,0,0,1,5.823,63.962,43.091,43.091,0,0,1,1.53,53.8a42.531,42.531,0,0,1,0-22.61A43.1,43.1,0,0,1,5.823,21.038,42.557,42.557,0,0,1,21.037,5.823,43.1,43.1,0,0,1,31.195,1.53,41.555,41.555,0,0,1,42.5,0Z"/>
      </g>
    </g>
  </g>
</svg>
