<svg xmlns="http://www.w3.org/2000/svg" xmlns:xlink="http://www.w3.org/1999/xlink" viewBox="0 0 150.201 193.185">
  <defs>
    <style>
      .cls-1, .cls-4 {
        fill: #fff;
      }

      .cls-1 {
        stroke: #707070;
      }

      .cls-2 {
        fill: none;
        stroke: #fff;
        stroke-width: 5px;
      }

      .cls-3 {
        clip-path: url(#clip-path);
      }
    </style>
    <clipPath id="clip-path">
      <rect id="Rectangle_43" data-name="Rectangle 43" class="cls-1" width="124" height="137" transform="translate(29 5078)"/>
    </clipPath>
  </defs>
  <g id="Group_93" data-name="Group 93" transform="translate(-75 -4927.82)">
    <path id="Path_161" data-name="Path 161" class="cls-2" d="M294,5565.077H487.185" transform="translate(5787.778 4633.82) rotate(90)"/>
    <g id="Mask_Group_7" data-name="Mask Group 7" class="cls-3" transform="translate(46 -122)">
      <g id="laser-machine" transform="translate(22.5 5078)">
        <path id="Path_168" data-name="Path 168" class="cls-4" d="M125.867,0h-24.9a1.23,1.23,0,0,0-1.231,1.231V5.742H38.141A8.756,8.756,0,1,0,26.868,18.356L50.515,66.187a8.733,8.733,0,0,0,.145,7.807L28.6,118.624c-.489-.042-.982-.068-1.481-.068A17.232,17.232,0,0,0,9.9,135.769,1.23,1.23,0,0,0,11.133,137H43.1a1.23,1.23,0,0,0,1.231-1.231c0-.042,0-.084-.006-.125a17.193,17.193,0,0,0-6.747-13.527L59.055,78.681A8.756,8.756,0,0,0,58.76,61.2L36.854,16.885a8.832,8.832,0,0,0,1.288-1.539H99.736V30.763a1.23,1.23,0,0,0,1.231,1.231h3.306V42.731a1.23,1.23,0,0,0,1.231,1.231h2.63V53.29a1.233,1.233,0,0,0,.281.782l3.773,4.584v41.8l-3.477-3.477a1.231,1.231,0,0,0-1.74,1.74l3.5,3.5h-4.944a1.231,1.231,0,0,0,0,2.461h4.944l-3.5,3.5a1.231,1.231,0,1,0,1.74,1.74l3.477-3.477v4.827a1.231,1.231,0,1,0,2.461,0V106.4l3.515,3.515a1.231,1.231,0,0,0,1.74-1.74l-3.5-3.5h4.944a1.231,1.231,0,1,0,0-2.461h-4.944l3.5-3.5a1.231,1.231,0,1,0-1.74-1.74l-3.515,3.515V58.656l3.773-4.584a1.23,1.23,0,0,0,.281-.782V43.962h2.63a1.23,1.23,0,0,0,1.231-1.231V31.994h3.305a1.23,1.23,0,0,0,1.231-1.231V1.231A1.23,1.23,0,0,0,125.867,0Zm-1.231,2.461v11.63H102.224a1.222,1.222,0,0,0-.027-.239V7.236a1.176,1.176,0,0,0,0-.526V2.461ZM39.1,127.182H24.03a1.231,1.231,0,1,0,0,2.461H40.1a1.219,1.219,0,0,0,.4-.072,14.645,14.645,0,0,1,1.319,4.967h-29.4a14.745,14.745,0,0,1,16.729-13.38l.064.008A14.764,14.764,0,0,1,39.1,127.182Zm-7.961-8.147L52.309,76.21a8.75,8.75,0,0,0,4.1,2.26l-20.9,42.281A17.092,17.092,0,0,0,31.138,119.036ZM64.721,69.948a6.3,6.3,0,1,1-6.3-6.3A6.3,6.3,0,0,1,64.721,69.948Zm-8.562-8.46a8.763,8.763,0,0,0-4.041,2.39L30.064,19.268c.25.022.5.035.757.035a8.7,8.7,0,0,0,4-.972ZM30.821,16.842a6.3,6.3,0,1,1,6.3-6.3A6.3,6.3,0,0,1,30.821,16.842Zm8.439-3.957a8.72,8.72,0,0,0,0-4.681H99.736v4.681Zm76.98,39.964-2.823,3.43-2.823-3.43V43.962h5.646ZM120.1,41.5H106.734V31.994H120.1ZM102.2,29.533V22.375h13.854a1.231,1.231,0,0,0,0-2.461H102.2V16.552h22.439V29.533Z"/>
        <path id="Path_169" data-name="Path 169" class="cls-4" d="M108.591,8.638h9.651a1.231,1.231,0,0,0,0-2.461h-9.651a1.231,1.231,0,0,0,0,2.461Z"/>
      </g>
    </g>
  </g>
</svg>
