<svg xmlns="http://www.w3.org/2000/svg" xmlns:xlink="http://www.w3.org/1999/xlink" viewBox="0 0 785.554 88.335">
  <defs>
    <style>
      .cls-1 {
        fill: url(#radial-gradient);
      }

      .cls-2 {
        fill: #030808;
      }

      .cls-3 {
        fill: #fff;
      }

      .cls-4 {
        fill: url(#radial-gradient-2);
      }

      .cls-5 {
        fill: url(#radial-gradient-3);
      }

      .cls-6 {
        fill: url(#linear-gradient);
      }

      .cls-7 {
        fill: url(#linear-gradient-2);
      }

      .cls-8 {
        fill: url(#radial-gradient-4);
      }

      .cls-9 {
        fill: url(#linear-gradient-3);
      }

      .cls-10 {
        fill: url(#radial-gradient-5);
      }

      .cls-11 {
        fill: url(#radial-gradient-6);
      }

      .cls-12 {
        fill: url(#linear-gradient-4);
      }

      .cls-13 {
        fill: #000e0f;
      }

      .cls-14 {
        fill: url(#radial-gradient-7);
      }

      .cls-15 {
        fill: url(#radial-gradient-9);
      }

      .cls-16 {
        fill: #03090a;
      }

      .cls-17 {
        fill: url(#radial-gradient-10);
      }

      .cls-18 {
        fill: url(#linear-gradient-5);
      }

      .cls-19 {
        fill: #030303;
      }

      .cls-20 {
        fill: #02090a;
      }

      .cls-21 {
        fill: url(#radial-gradient-12);
      }

      .cls-22 {
        fill: url(#radial-gradient-13);
      }

      .cls-23 {
        fill: url(#radial-gradient-14);
      }

      .cls-24 {
        fill: url(#radial-gradient-15);
      }
    </style>
    <radialGradient id="radial-gradient" cx="0.5" cy="0.5" r="3.229" gradientTransform="translate(0.258 0.381) scale(0.483 0.239)" gradientUnits="objectBoundingBox">
      <stop offset="0" stop-color="#134953"/>
      <stop offset="1" stop-color="#000b0e"/>
    </radialGradient>
    <radialGradient id="radial-gradient-2" r="1.76" gradientTransform="translate(0.057 0.281) scale(0.886 0.438)" xlink:href="#radial-gradient"/>
    <radialGradient id="radial-gradient-3" r="1.097" gradientTransform="translate(-0.211 0.149) scale(1.422 0.703)" xlink:href="#radial-gradient"/>
    <linearGradient id="linear-gradient" x1="29.145" y1="-77.34" x2="29.903" y2="-77.34" gradientUnits="objectBoundingBox">
      <stop offset="0" stop-color="#007c85"/>
      <stop offset="0" stop-color="#007780"/>
      <stop offset="0.323" stop-color="#00464c"/>
      <stop offset="0.684" stop-color="#001517"/>
      <stop offset="0.861" stop-color="#000202"/>
      <stop offset="1"/>
    </linearGradient>
    <linearGradient id="linear-gradient-2" x1="-14.487" y1="-5.215" x2="-13.917" y2="-5.215" xlink:href="#linear-gradient"/>
    <radialGradient id="radial-gradient-4" r="0.579" gradientTransform="translate(-0.847 -0.166) scale(2.694 1.332)" xlink:href="#radial-gradient"/>
    <linearGradient id="linear-gradient-3" x1="-3.072" y1="-127.217" x2="-2.362" y2="-127.217" xlink:href="#linear-gradient"/>
    <radialGradient id="radial-gradient-5" r="2.057" gradientTransform="translate(0.121 0.313) scale(0.758 0.375)" xlink:href="#radial-gradient"/>
    <radialGradient id="radial-gradient-6" r="0.755" gradientTransform="translate(-0.533 -0.011) scale(2.067 1.022)" xlink:href="#radial-gradient"/>
    <linearGradient id="linear-gradient-4" x1="-20.669" y1="-34.856" x2="-19.488" y2="-34.856" xlink:href="#linear-gradient"/>
    <radialGradient id="radial-gradient-7" r="0.712" gradientTransform="translate(-0.595 -0.041) scale(2.19 1.082)" xlink:href="#radial-gradient"/>
    <radialGradient id="radial-gradient-9" r="0.904" gradientTransform="translate(-0.362 0.074) scale(1.725 0.853)" xlink:href="#radial-gradient"/>
    <radialGradient id="radial-gradient-10" r="1.951" gradientTransform="translate(0.1 0.302) scale(0.8 0.395)" xlink:href="#radial-gradient"/>
    <linearGradient id="linear-gradient-5" x1="-18.737" y1="-38.893" x2="-18.009" y2="-38.893" xlink:href="#linear-gradient"/>
    <radialGradient id="radial-gradient-12" r="0.674" gradientTransform="translate(-0.657 -0.072) scale(2.314 1.144)" xlink:href="#radial-gradient"/>
    <radialGradient id="radial-gradient-13" r="3.01" gradientTransform="translate(0.241 0.372) scale(0.518 0.256)" xlink:href="#radial-gradient"/>
    <radialGradient id="radial-gradient-14" r="0.638" gradientTransform="translate(-0.722 -0.104) scale(2.445 1.208)" xlink:href="#radial-gradient"/>
    <radialGradient id="radial-gradient-15" r="1.404" gradientTransform="translate(-0.056 0.225) scale(1.111 0.549)" xlink:href="#radial-gradient"/>
  </defs>
  <g id="Group_63" data-name="Group 63" transform="translate(-129 -1526.08)">
    <path id="XMLID_33_" class="cls-1" d="M331.5,157.4l37.3-.9,9.9-21.9Z" transform="matrix(-1, -0.017, 0.017, -1, 660.346, 1704.625)"/>
    <path id="XMLID_32_" class="cls-2" d="M223.7,171.7l.3-37.3-21.6-10.6Z" transform="matrix(-1, -0.017, 0.017, -1, 743.49, 1706.076)"/>
    <path id="XMLID_31_" d="M456.3,169.6l-22.6-29.7-23.5,4.8Z" transform="matrix(-1, -0.017, 0.017, -1, 602.646, 1703.618)"/>
    <path id="XMLID_30_" class="cls-3" d="M425.6,159.2,403,129.5l-23.5,4.8Z" transform="matrix(-1, -0.017, 0.017, -1, 603.646, 1705.618)"/>
    <path id="XMLID_29_" class="cls-3" d="M181.8,132.4,146.4,152l51.8-4.7Z" transform="matrix(-1, -0.017, 0.017, -1, 768.946, 1706.52)"/>
    <path id="XMLID_28_" class="cls-3" d="M106.5,132.5,15.7,158.7l129.8-11.8Z" transform="matrix(-1, -0.017, 0.017, -1, 856.523, 1708.049)"/>
    <path id="XMLID_27_" class="cls-4" d="M105.1,175.859l37.311-10.539,4.961-26.92Z" transform="matrix(-1, -0.017, 0.017, -1, 795.143, 1711.737)"/>
    <path id="XMLID_25_" class="cls-5" d="M72.5,167.3l35.2-50.2.1,29.8Z" transform="matrix(-1, -0.017, 0.017, -1, 814.776, 1707.32)"/>
    <path id="XMLID_24_" class="cls-6" d="M192.9,151.1l7.6-13.4-16.2,10.6Z" transform="matrix(-1, -0.017, 0.017, -1, 754.807, 1706.273)"/>
    <path id="XMLID_23_" class="cls-7" d="M182.3,172.7l-12.5-53.4-4.5,23.3Z" transform="matrix(-1, -0.017, 0.017, -1, 756.134, 1707.454)"/>
    <path id="XMLID_22_" class="cls-8" d="M29.5,162.9,22.9,149l-.6,19.4Z" transform="matrix(-1, -0.017, 0.017, -1, 856.523, 1708.049)"/>
    <path id="XMLID_21_" class="cls-9" d="M73.8,144.4l15.4-.1-17.3-8.8Z" transform="matrix(-1, -0.017, 0.017, -1, 856.523, 1708.049)"/>
    <path id="XMLID_20_" class="cls-3" d="M324.9,149.3,264,119.9l-40.7,26.6Z" transform="matrix(-1, -0.017, 0.017, -1, 705.186, 1705.407)"/>
    <path id="XMLID_19_" class="cls-10" d="M307,170.9l-18.6-32.3-24,1.8Z" transform="matrix(-1, -0.017, 0.017, -1, 701.714, 1705.347)"/>
    <path id="XMLID_18_" class="cls-11" d="M248.1,173.6,272,124.2l-18.1,15.3Z" transform="matrix(-1, -0.017, 0.017, -1, 717.264, 1705.618)"/>
    <path id="XMLID_17_" class="cls-12" d="M296.6,138,307,149.3l-5.1-18.7Z" transform="matrix(-1, -0.017, 0.017, -1, 680.866, 1715.227)"/>
    <path id="XMLID_16_" class="cls-13" d="M414.5,152.1,389.8,151l8.3,12.8Z" transform="matrix(-1, -0.017, 0.017, -1, 602.646, 1703.618)"/>
    <path id="XMLID_15_" class="cls-3" d="M35.4,132.4,0,152l51.8-4.7Z" transform="matrix(-1, -0.017, 0.017, -1, 856.523, 1708.049)"/>
    <path id="XMLID_14_" class="cls-14" d="M41.7,172.5l23.2-29.2L54.5,121.7Z" transform="matrix(-1, -0.017, 0.017, -1, 856.523, 1708.049)"/>
    <path id="XMLID_33_2" data-name="XMLID_33_" class="cls-1" d="M331.5,157.4l37.3-.9,9.9-21.9Z" transform="translate(353.21 1581.725) rotate(-22)"/>
    <path id="XMLID_32_2" data-name="XMLID_32_" class="cls-15" d="M240.484,190.415l.536-51.873L202.4,123.8Z" transform="translate(266.732 1424)"/>
    <path id="XMLID_31_2" data-name="XMLID_31_" class="cls-16" d="M456.3,169.6l-22.6-29.7-23.5,4.8Z" transform="translate(438.354 1429.915)"/>
    <path id="XMLID_30_2" data-name="XMLID_30_" class="cls-3" d="M425.6,159.2,403,129.5l-23.5,4.8Z" transform="translate(438.354 1426.737)"/>
    <path id="XMLID_29_2" data-name="XMLID_29_" class="cls-3" d="M181.8,132.4,146.4,152l51.8-4.7Z" transform="translate(235.714 1426.452)"/>
    <path id="XMLID_28_2" data-name="XMLID_28_" class="cls-3" d="M106.5,132.5,15.7,158.7l129.8-11.8Z" transform="translate(129 1427.006)"/>
    <path id="XMLID_27_2" data-name="XMLID_27_" class="cls-17" d="M105.1,171.1l36.1-9.2,4.8-23.5Z" transform="translate(203.691 1429.915)"/>
    <path id="XMLID_26_" class="cls-18" d="M336.8,173.5l-28.6-7.2,13.3-5.2Z" transform="translate(342.009 1429.915)"/>
    <path id="XMLID_25_2" data-name="XMLID_25_" class="cls-19" d="M72.5,173.215,107.7,117.1l.1,33.311Z" transform="translate(179.869 1424)"/>
    <path id="XMLID_24_2" data-name="XMLID_24_" class="cls-20" d="M192.9,151.1l7.6-13.4-16.2,10.6Z" transform="translate(246.943 1426.827)"/>
    <path id="XMLID_23_2" data-name="XMLID_23_" class="cls-7" d="M182.3,178.615,169.8,119.3l-4.5,25.881Z" transform="translate(240.359 1424)"/>
    <path id="XMLID_21_2" data-name="XMLID_21_" class="cls-9" d="M73.8,144.4l15.4-.1-17.3-8.8Z" transform="translate(131 1435.286)"/>
    <path id="XMLID_20_2" data-name="XMLID_20_" class="cls-3" d="M324.9,149.3,264,119.9l-40.7,26.6Z" transform="translate(313.406 1424)"/>
    <path id="XMLID_19_2" data-name="XMLID_19_" class="cls-10" d="M307,170.9l-18.6-32.3-24,1.8Z" transform="translate(317.637 1429.915)"/>
    <path id="XMLID_18_2" data-name="XMLID_18_" class="cls-21" d="M248.1,179.515,272,124.2l-18.1,17.132Z" transform="translate(298.69 1424)"/>
    <path id="XMLID_17_2" data-name="XMLID_17_" class="cls-12" d="M296.6,138,307,149.3l-5.1-18.7Z" transform="translate(325.982 1426.112)"/>
    <path id="XMLID_16_2" data-name="XMLID_16_" class="cls-22" d="M414.5,152.1,389.8,151l8.3,12.8Z" transform="translate(438.354 1428.588)"/>
    <path id="XMLID_15_2" data-name="XMLID_15_" class="cls-3" d="M35.4,132.4,0,152l51.8-4.7Z" transform="translate(129 1426.452)"/>
    <path id="XMLID_14_2" data-name="XMLID_14_" class="cls-23" d="M41.7,178.415l23.2-32.6L54.5,121.7Z" transform="translate(125 1436)"/>
    <path id="XMLID_7_" class="cls-24" d="M476.2,161.2l-13.3-21-5.6,14.2Z" transform="translate(438.354 1427.849)"/>
    <path id="XMLID_26_2" data-name="XMLID_26_" class="cls-18" d="M336.8,173.5l-28.6-7.2,13.3-5.2Z" transform="translate(488.238 1273.711) rotate(31)"/>
  </g>
</svg>
