<svg xmlns="http://www.w3.org/2000/svg" xmlns:xlink="http://www.w3.org/1999/xlink" viewBox="0 0 157.201 136.789">
  <defs>
    <style>
      .cls-1, .cls-4 {
        fill: #fff;
      }

      .cls-1 {
        stroke: #707070;
      }

      .cls-2 {
        fill: none;
        stroke: #fff;
        stroke-width: 5px;
      }

      .cls-3 {
        clip-path: url(#clip-path);
      }
    </style>
    <clipPath id="clip-path">
      <rect id="Rectangle_44" data-name="Rectangle 44" class="cls-1" width="124" height="127" transform="translate(29 4795)"/>
    </clipPath>
  </defs>
  <g id="Group_93" data-name="Group 93" transform="translate(-68 -4715)">
    <path id="Path_163" data-name="Path 163" class="cls-2" d="M294,5564.864H430.382" transform="translate(5787.565 4421.407) rotate(90)"/>
    <g id="Mask_Group_8" data-name="Mask Group 8" class="cls-3" transform="translate(39 -80)">
      <g id="shield" transform="translate(27.5 4795)">
        <g id="Group_92" data-name="Group 92">
          <path id="Path_170" data-name="Path 170" class="cls-4" d="M116.808,32.69c-.152-3.341-.152-6.53-.152-9.72a4.475,4.475,0,0,0-4.556-4.556c-18.984,0-33.411-5.467-45.409-17.161a4.685,4.685,0,0,0-6.378,0c-12,11.694-26.425,17.161-45.409,17.161a4.475,4.475,0,0,0-4.556,4.556c0,3.189,0,6.378-.152,9.72C9.589,64.582,8.678,108.32,61.984,126.7l1.519.3,1.519-.3C118.175,108.32,117.416,64.734,116.808,32.69ZM59.858,76.883A4.9,4.9,0,0,1,56.668,78.1h-.152a4.274,4.274,0,0,1-3.189-1.519L39.2,60.937l6.834-6.075,11.086,12.3,24.6-23.388,6.227,6.682Z"/>
        </g>
      </g>
    </g>
  </g>
</svg>
