<svg xmlns="http://www.w3.org/2000/svg" xmlns:xlink="http://www.w3.org/1999/xlink" viewBox="0 0 77 76">
  <defs>
    <style>
      .cls-1, .cls-3 {
        fill: #013c47;
      }

      .cls-1 {
        stroke: #707070;
      }

      .cls-2 {
        clip-path: url(#clip-path);
      }
    </style>
    <clipPath id="clip-path">
      <rect id="Rectangle_27" data-name="Rectangle 27" class="cls-1" width="77" height="76" transform="translate(1413 1294)"/>
    </clipPath>
  </defs>
  <g id="Mask_Group_5" data-name="Mask Group 5" class="cls-2" transform="translate(-1413 -1294)">
    <path id="wifi-signal" class="cls-3" d="M38,0A38,38,0,1,0,76,38,38,38,0,0,0,38,0Zm0,59.714A2.714,2.714,0,1,1,40.714,57,2.714,2.714,0,0,1,38,59.714Zm8.645-9.441a1.357,1.357,0,0,1-1.919.007,9.525,9.525,0,0,0-13.453,0,1.357,1.357,0,0,1-1.912-1.926,12.238,12.238,0,0,1,17.277,0A1.358,1.358,0,0,1,46.645,50.274ZM52.4,44.523a1.359,1.359,0,0,1-1.919,0,17.658,17.658,0,0,0-24.949.005,1.357,1.357,0,1,1-1.919-1.919,20.515,20.515,0,0,1,3.7-2.9,20.24,20.24,0,0,1,21.388,0,20.534,20.534,0,0,1,3.7,2.9A1.357,1.357,0,0,1,52.4,44.523Zm5.754-5.754a1.357,1.357,0,0,1-1.919,0,25.773,25.773,0,0,0-36.462,0A1.357,1.357,0,0,1,17.85,36.85a28.486,28.486,0,0,1,40.3,0A1.358,1.358,0,0,1,58.15,38.769Zm5.757-5.758a1.358,1.358,0,0,1-1.919,0,33.915,33.915,0,0,0-47.975,0,1.357,1.357,0,1,1-1.919-1.919,36.627,36.627,0,0,1,51.813,0A1.357,1.357,0,0,1,63.907,33.011Zm0,0" transform="translate(1413.5 1294)"/>
  </g>
</svg>
